<?xml version="1.0" encoding="UTF-8"?>
<svg width="30px" height="35px" viewBox="0 0 30 35" version="1.1" xmlns="http://www.w3.org/2000/svg" xmlns:xlink="http://www.w3.org/1999/xlink">
    <!-- Generator: Sketch 48.2 (47327) - http://www.bohemiancoding.com/sketch -->
    <title>Fill 2 Copy</title>
    <desc>Created with Sketch.</desc>
    <defs></defs>
    <g id="Page-1" stroke="none" stroke-width="1" fill="none" fill-rule="evenodd">
        <path d="M22.4986219,0.700614667 C22.4986219,2.45094753 21.848139,4.08511318 20.5508483,5.59769451 C18.9858919,7.39617958 17.0926315,8.43566543 15.0388942,8.27134601 C15.0131689,8.06128199 14.9978562,7.84038372 14.9978562,7.60804931 C14.9978562,5.92813905 15.7426652,4.12965398 17.0644562,2.65920584 C17.7241267,1.91465228 18.5632618,1.29589637 19.5812491,0.80173431 C20.5973989,0.315396981 21.5578105,0.0463465029 22.4612589,0 C22.4875967,0.234140125 22.4986219,0.46828025 22.4986219,0.700614667 Z M29.3715674,27.2758198 C28.8325609,28.4982841 28.1949407,29.623842 27.4568693,30.6585126 C26.4492946,32.0693724 25.6248596,33.0462604 24.9896895,33.5879727 C24.0047776,34.4787886 22.9494273,34.933827 21.8199637,34.9597088 C21.0083914,34.9597088 20.030217,34.7333935 18.8909533,34.2729379 C17.748627,33.81489 16.6987893,33.5879727 15.7389902,33.5879727 C14.7314155,33.5879727 13.6521775,33.81489 12.4969885,34.2729379 C11.339962,34.7333935 10.4083383,34.9729507 9.69599216,34.9970268 C8.61185406,35.0421695 7.531391,34.5732874 6.45399049,33.5879727 C5.76553217,32.9987101 4.90434676,31.9875136 3.87410931,30.5549854 C2.76730844,29.0255508 1.85834746,27.2517437 1.14538884,25.2293509 C0.382817126,23.0456481 0,20.9305622 0,18.8828895 C0,16.5372749 0.515118724,14.5142801 1.54841871,12.8187204 C2.36060352,11.4572167 3.44106658,10.3828205 4.79287041,9.594328 C6.14467425,8.80583555 7.6055044,8.40436649 9.1778109,8.37848468 C10.0383838,8.37848468 11.1672349,8.64031233 12.5698769,9.15433718 C13.9682313,9.67016773 14.8667796,9.93199538 15.2606219,9.93199538 C15.5546255,9.93199538 16.5524,9.62622884 18.2441455,9.01589957 C19.8434023,8.45011109 21.1927561,8.21597097 22.2989444,8.30866397 C25.2953307,8.54641551 27.5462954,9.7068838 29.0438759,11.7978935 C26.3641561,13.3935374 25.0380775,15.6290038 25.0644154,18.4958661 C25.0889157,20.7289248 25.9127381,22.5876002 27.5334327,24.0628635 C28.2678291,24.7478287 29.0879765,25.2775031 30,25.6530903 C29.8021601,26.2170731 29.5932951,26.7575816 29.3715674,27.2758198 L29.3715674,27.2758198 Z" id="Fill-2-Copy" fill="#000000"></path>
    </g>
</svg>