<?xml version="1.0" encoding="UTF-8"?>
<svg width="30px" height="35px" viewBox="0 0 30 35" version="1.1" xmlns="http://www.w3.org/2000/svg" xmlns:xlink="http://www.w3.org/1999/xlink">
    <!-- Generator: Sketch 48.2 (47327) - http://www.bohemiancoding.com/sketch -->
    <title>Combined Shape Copy</title>
    <desc>Created with Sketch.</desc>
    <defs></defs>
    <g id="Page-1" stroke="none" stroke-width="1" fill="none" fill-rule="evenodd">
        <path d="M19.2798859,5.74155779 C19.7517832,5.74155779 20.135806,6.14651989 20.135806,6.64280876 C20.135806,7.13969846 19.7517832,7.53144222 19.2798859,7.53144222 C18.8085592,7.53144222 18.4239658,7.13969846 18.4239658,6.64280876 C18.4239658,6.14651989 18.8085592,5.74155779 19.2798859,5.74155779 M10.7195435,5.74155779 C11.1914408,5.74155779 11.5754636,6.14651989 11.5754636,6.64280876 C11.5754636,7.13969846 11.1914408,7.53144222 10.7195435,7.53144222 C10.2482168,7.53144222 9.8636234,7.13969846 9.8636234,6.64280876 C9.8636234,6.14651989 10.2482168,5.74155779 10.7195435,5.74155779 M9.1743224,0.261351052 C9.1743224,0.261351052 9.10413695,0.109940889 9.24393723,0.0264249655 C9.38373752,-0.0576917917 9.47104137,0.0859075296 9.47104137,0.0859075296 L11.0407989,2.94046977 C12.2356633,2.3804925 13.5788873,2.06385299 14.9997147,2.06385299 C16.4205421,2.06385299 17.763766,2.3804925 18.9592011,2.94046977 L20.528388,0.0859075296 C20.528388,0.0859075296 20.621398,-0.0576917917 20.7600571,0.0264249655 C20.8987161,0.111142557 20.825107,0.261351052 20.825107,0.261351052 L19.2798859,3.09067827 C22.09301,4.54349483 24,7.38844373 24,10.6521739 L14.9997147,10.6521739 L6,10.6521739 C6,7.38844373 7.9064194,4.54349483 10.7195435,3.09067827 L9.1743224,0.261351052 Z M6,12.173913 L24,12.173913 L24,26.3317309 C24,27.0351552 23.1876337,27.9539254 22.5150962,27.9539254 L20.4023777,27.9539254 L20.4023777,32.7814627 C20.4023777,34.0102365 19.5339665,35 18.4679834,35 C17.4020003,35 16.5449113,34.0102365 16.5449113,32.7814627 L16.5449113,27.9539254 L13.4545226,27.9539254 L13.4545226,32.7814627 C13.4545226,34.0102365 12.5979997,35 11.5320166,35 C10.4660335,35 9.60951063,34.0102365 9.60951063,32.7814627 L9.60951063,27.9539254 L7.48433765,27.9539254 C6.81236634,27.9539254 6,27.0351552 6,26.3317309 L6,12.173913 Z M2.25,10.6521739 C3.49249779,10.6521739 4.5,11.5941094 4.5,12.7559607 L4.5,20.7217391 C4.5,21.8835905 3.49249779,22.826087 2.25,22.826087 C1.00750221,22.826087 0,21.8835905 0,20.7217391 L0,12.7559607 C0,11.5941094 1.00750221,10.6521739 2.25,10.6521739 Z M27.7496691,10.6521739 C28.992646,10.6521739 30,11.5941094 30,12.7559607 L30,20.7217391 C30,21.8835905 28.992646,22.826087 27.7496691,22.826087 C26.507354,22.826087 25.5,21.8835905 25.5,20.7217391 L25.5,12.7559607 C25.5,11.5941094 26.507354,10.6521739 27.7496691,10.6521739 Z" id="Combined-Shape-Copy" fill="#000000"></path>
    </g>
</svg>